inDegrees=yes
name=ik_OwnShooting_orientations.mot
DataType=double
version=3
OpenSimVersion=4.3-2021-08-27-4bc7ad9
endheader
time	pelvis_tilt	pelvis_list	pelvis_rotation	pelvis_tx	pelvis_ty	pelvis_tz	hip_flexion_r	hip_adduction_r	hip_rotation_r	knee_angle_r	knee_angle_r_beta	ankle_angle_r	subtalar_angle_r	mtp_angle_r	hip_flexion_l	hip_adduction_l	hip_rotation_l	knee_angle_l	knee_angle_l_beta	ankle_angle_l	subtalar_angle_l	mtp_angle_l	lumbar_extension	lumbar_bending	lumbar_rotation	arm_flex_r	arm_add_r	arm_rot_r	elbow_flex_r	pro_sup_r	wrist_flex_r	wrist_dev_r	arm_flex_l	arm_add_l	arm_rot_l	elbow_flex_l	pro_sup_l	wrist_flex_l	wrist_dev_l
7.5	0.6754126686224243	-1.800564543441592	-146.6349926266218	0	0.9399999999999999	0	44.61660038294266	-10.00054385231865	0	59.35490074168663	1.035938445136856	-5.000103588360346	0	0	44.61660038294266	-10.00054385231865	0	59.35490074168663	1.035938445136856	-5.000103588360346	0	0	2.022925100354488	-12.16107631159915	-3.006106144531543	27.22267618909968	-119.9884450913087	46.2197994466225	17.26345380517987	45.00724882244005	0	0	0	-13.70906391578553	0	74.70738237321005	45.00724882244005	0	0
7.51	0.6646133072941897	-1.803701469946258	-146.6244895347074	0	0.9399999999999999	0	44.61850106163369	-10.00053627873337	0	59.35782728689669	1.03598952298648	-5.000101787792966	0	0	44.61850106163369	-10.00053627873337	0	59.35782728689669	1.03598952298648	-5.000101787792966	0	0	1.713456823788659	-16.52832899515962	-5.048121490571707	26.21306636215244	-119.9920928100543	45.97706768873635	22.90035639792362	45.00716565771059	0	0	0	-13.71272532497127	0	74.70883386155117	45.00716565771059	0	0
7.52	0.6668437076258497	-1.806025491522228	-146.6243813741327	0	0.9399999999999999	0	44.62038116905309	-10.00052853327381	0	59.36065211293752	1.036038825501689	-5.000099934770498	0	0	44.62038116905309	-10.00052853327381	0	59.36065211293752	1.036038825501689	-5.000099934770498	0	0	1.335463197361515	-19.58406869306326	-7.127459053108689	27.45195421355733	-119.9936300176348	47.09911294215561	26.94533410394541	45.00708111401914	0	0	0	-13.71628746932817	0	74.71026963930794	45.00708111401914	0	0
7.53	0.6596788953958252	-1.795379936388615	-146.6081828548249	0	0.9399999999999999	0	44.63161904343163	-10.00048298954418	0	59.37769776864219	1.036336328316896	-5.000089103188554	0	0	44.63161904343163	-10.00048298954418	0	59.37769776864219	1.036336328316896	-5.000089103188554	0	0	25.83441673455289	-53.45263623323673	45.19727524568383	-32.32278951862647	-119.9980618586583	89.95324688663443	149.9851964925091	45.00658191601661	0	0	0	-13.7377011011386	0	74.71885164683268	45.00658191601661	0	0
7.54	0.6626195333984861	-1.793324117941061	-146.6016854591043	0	0.9399999999999999	0	44.63204300167336	-10.00048104159606	0	59.37825812951922	1.0363461084592	-5.000088633542598	0	0	44.63204300167336	-10.00048104159606	0	59.37825812951922	1.0363461084592	-5.000088633542598	0	0	28.97657616319579	-52.80086859231844	51.50567171101864	-39.36728729944006	-119.9981280997449	89.97528035134796	149.9923629048417	45.00656092651272	0	0	0	-13.73844318944292	0	74.71917540928858	45.00656092651272	0	0
7.55	0.6487746517851032	-1.803768210381594	-146.5998134602272	0	0.9399999999999999	0	44.63691585366292	-10.00046279933577	0	59.38506126305825	1.036464845538909	-5.000084520198028	0	0	44.63691585366292	-10.00046279933577	0	59.38506126305825	1.036464845538909	-5.000084520198028	0	0	30.24715875925539	-50.67284781389469	56.22885679684698	-48.22103413564123	-119.998138164642	89.9846822093099	149.9950711907371	45.00635402143338	0	0	0	-13.74750080936198	0	74.7228966522528	45.00635402143338	0	0
7.56	0.6326159867118335	-1.81310997798589	-146.5811581270854	0	0.9399999999999999	0	44.6371160776325	-10.00046190706481	0	59.38532729921165	1.036469488745715	-5.000084307260048	0	0	44.6371160776325	-10.00046190706481	0	59.38532729921165	1.036469488745715	-5.000084307260048	0	0	29.90255003166524	-50.04191469684811	56.42717409346919	-49.74305582192873	-119.9981278627297	89.98548544163022	149.995305458075	45.00634433226701	0	0	0	-13.74785425861335	0	74.72304955655095	45.00634433226701	0	0
7.57	0.6402111533164576	-1.82928127177949	-146.5868363006839	0	0.9399999999999999	0	44.63726023601795	-10.00046126511766	0	59.38551878138812	1.036472830740153	-5.000084154128025	0	0	44.63726023601795	-10.00046126511766	0	59.38551878138812	1.036472830740153	-5.000084154128025	0	0	29.99105274897274	-50.24953418764604	56.34762040229174	-49.7809324816813	-119.9981252913794	89.98573657457506	149.9952765324459	45.00633735942732	0	0	0	-13.74810872055455	0	74.7231596454525	45.00633735942732	0	0
7.58	0.6342719393764117	-1.834145245240386	-146.58751070311	0	0.9399999999999999	0	44.6375773506378	-10.00045985145943	0	59.38593914175683	1.036480167412632	-5.000083816967867	0	0	44.6375773506378	-10.00045985145943	0	59.38593914175683	1.036480167412632	-5.000083816967867	0	0	30.89034936862484	-50.55827387175194	57.62937578655542	-50.39627076182058	-119.9981460693316	89.98640226621679	149.995427970541	45.00632200426691	0	0	0	-13.74866778775578	0	74.72340181519449	45.00632200426691	0	0
7.59	0.6303835642568903	-1.813275388021188	-146.567285544917	0	0.9399999999999999	0	44.63765899090489	-10.00045949009061	0	59.38604786729419	1.03648206503124	-5.000083730927851	0	0	44.63765899090489	-10.00045949009061	0	59.38604786729419	1.03648206503124	-5.000083730927851	0	0	31.34432905543914	-51.18422190986287	57.71909846190058	-49.36712742112655	-119.9981601795551	89.98610035376259	149.9952720464791	45.00631807349096	0	0	0	-13.74881222361548	0	74.7234641611219	45.00631807349096	0	0
7.6	0.6274521687281475	-1.828244167388838	-146.5813752178821	0	0.9399999999999999	0	44.63789777137762	-10.0004584292805	0	59.3863647271148	1.036487595278377	-5.000083478229883	0	0	44.63789777137762	-10.0004584292805	0	59.3863647271148	1.036487595278377	-5.000083478229883	0	0	31.65590236069993	-51.37198687683165	58.07635360949627	-49.45234551172287	-119.9981660419233	89.98629823544969	149.9952859698451	45.00630654082419	0	0	0	-13.74923364446752	0	74.72364650972699	45.00630654082419	0	0
7.61	0.6416704115271137	-1.859320509257139	-146.58047274062	0	0.9399999999999999	0	44.63799359419195	-10.00045800640871	0	59.3864924586015	1.036489824613378	-5.000083377654076	0	0	44.63799359419195	-10.00045800640871	0	59.3864924586015	1.036489824613378	-5.000083377654076	0	0	31.73597847932948	-51.56380604436995	58.01799768300507	-48.93978454367499	-119.9981677968575	89.98599972395355	149.9951839536609	45.00630193749625	0	0	0	-13.74940333423143	0	74.7237196863924	45.00630193749625	0	0
